<?xml version="1.0" standalone="no"?><!DOCTYPE svg PUBLIC "-//W3C//DTD SVG 1.1//EN" "http://www.w3.org/Graphics/SVG/1.1/DTD/svg11.dtd"><svg t="1689238423328" class="icon" viewBox="0 0 1024 1024" version="1.1" xmlns="http://www.w3.org/2000/svg" p-id="1095" width="200" height="200" xmlns:xlink="http://www.w3.org/1999/xlink"><path d="M615.424 755.584a14.848 14.848 0 0 1-14.912 14.848h-531.2a14.912 14.912 0 0 1-14.912-14.848V166.336c0-8.192 6.72-14.848 14.912-14.848h531.2c8.32 0 14.912 6.656 14.912 14.848v589.248z" fill="#43AA99" p-id="1096"></path><path d="M54.336 364.928h561.088v176.256H54.336z" fill="#84C5BD" p-id="1097"></path><path d="M979.072 529.664v231.68c0 8.32-6.72 14.848-14.912 14.848H636.736a14.848 14.848 0 0 1-14.848-14.848V321.152c0-8.256 6.656-14.912 14.848-14.912H902.4" fill="#E1B030" p-id="1098"></path><path d="M944.896 541.248v-9.344l-61.824-180.736h-140.48a12.032 12.032 0 0 0-12.032 12.032v178.048h214.336z" fill="#745448" p-id="1099"></path><path d="M279.168 770.432m-95.808 0a95.808 95.808 0 1 0 191.616 0 95.808 95.808 0 1 0-191.616 0Z" fill="#B8A6A1" p-id="1100"></path><path d="M279.168 885.824c-63.616 0-115.392-51.84-115.392-115.392 0-63.68 51.776-115.456 115.392-115.456s115.456 51.776 115.456 115.456c0 63.552-51.84 115.392-115.456 115.392z m0-191.424a76.16 76.16 0 0 0-76.096 76.032 76.096 76.096 0 1 0 76.096-76.032z" fill="#44544A" p-id="1101"></path><path d="M800.512 770.432m-95.808 0a95.808 95.808 0 1 0 191.616 0 95.808 95.808 0 1 0-191.616 0Z" fill="#B8A6A1" p-id="1102"></path><path d="M800.512 885.824c-63.616 0-115.456-51.84-115.456-115.392 0-63.68 51.84-115.456 115.456-115.456s115.392 51.776 115.392 115.456c0 63.552-51.776 115.392-115.392 115.392z m0-191.424a76.096 76.096 0 1 0 0 152.192 76.096 76.096 0 0 0 0-152.192z" fill="#44544A" p-id="1103"></path></svg>